<svg xmlns="http://www.w3.org/2000/svg" viewBox="0 0 512 512" role="img" aria-label="Anamnese Editor">
  <rect width="512" height="512" rx="92" fill="#0e504b"/>
  <path d="M107 406 221 106c6-16 19-25 35-25s29 9 35 25l114 300h-79l-23-67h-94l-23 67h-79Z" fill="#f7f1e7"/>
  <path d="M232 274h48l-24-78-24 78Z" fill="#0e504b"/>
  <path d="M349 147c34-24 66-15 84 22M363 207c16-31 42-46 77-43M359 188c22 18 49 31 81 38" fill="none" stroke="#d99a2b" stroke-width="19" stroke-linecap="round" stroke-linejoin="round"/>
  <circle cx="349" cy="147" r="22" fill="#d99a2b"/>
  <circle cx="433" cy="169" r="20" fill="#d99a2b"/>
  <circle cx="363" cy="207" r="18" fill="#d99a2b"/>
  <circle cx="440" cy="226" r="18" fill="#d99a2b"/>
</svg>
